# xmcd
# 
# Track frame offsets:
#     150
#     10050
#     34135
#     54040
#     69252
#     87712
#     102260
#     118922
#     135057
#     152027
#     164587
#     202737
#     215987
#     230620
#     242500
#     253067
#     270227
#     297987
#     308015
# 
# Disc length: 4414
# 
# Revision: 2
# Processed by: cddbd v1.5.2PL0 Copyright (c) Steve Scherf et al.
# Submitted via: BonkEnc v1.0.15
# 
DISCID=02113c13
DTITLE=John Williams - Harry Potter and The Philosopher's Stone
DYEAR=2001
DGENRE=Soundtrack
TTITLE0=Prologue
TTITLE1=Harry's  Wondrous World
TTITLE2=The Arrival of Baby Harry
TTITLE3=Visit to The Zoo and Letters from Hogwarts
TTITLE4=Diagon Alley and The Gringotts Vault
TTITLE5=Platform Nine-and-Three-Quarters and The Journey to Hogwarts
TTITLE6=Entry Into The Great Hall and The Banquet
TTITLE7=Mr. Longbottom Flies
TTITLE8=Hogwarts Forever! and The Moving Stairs
TTITLE9=The Norwegian Ridgeback and A Change of Season
TTITLE10=The Quidditch Match
TTITLE11=Christmas At Hogwarts
TTITLE12=The Invisibility Cloak and The Library Scene
TTITLE13=Fluffy's Harp
TTITLE14=In The Devil's Snare and The Flying Keys
TTITLE15=The Chess Game
TTITLE16=The Face of Voldemort
TTITLE17=Leaving Hogwarts
TTITLE18=Hedwig's Theme
EXTD=YEAR: 2001
EXTT0=
EXTT1=
EXTT2=
EXTT3=
EXTT4=
EXTT5=
EXTT6=
EXTT7=
EXTT8=
EXTT9=
EXTT10=
EXTT11=
EXTT12=
EXTT13=
EXTT14=
EXTT15=
EXTT16=
EXTT17=
EXTT18=
PLAYORDER=
